<svg width="25" height="24" viewBox="0 0 25 24" fill="none" xmlns="http://www.w3.org/2000/svg">
<mask id="mask0_1400_38" style="mask-type:luminance" maskUnits="userSpaceOnUse" x="0" y="0" width="25" height="24">
<path fill-rule="evenodd" clip-rule="evenodd" d="M0.333496 0.499878H24.2181V23.251H0.333496V0.499878Z" fill="white"/>
</mask>
<g mask="url(#mask0_1400_38)">
<path fill-rule="evenodd" clip-rule="evenodd" d="M2.46096 11.1435C4.09662 16.2325 10.5588 20.3473 12.2761 21.3658C13.9993 20.3368 20.5081 16.1765 22.0913 11.1482C23.1308 7.89785 22.166 3.78068 18.3323 2.54518C16.475 1.94902 14.3085 2.31185 12.8128 3.46918C12.5001 3.70952 12.0661 3.71418 11.7511 3.47618C10.1668 2.28502 8.09712 1.93618 6.21062 2.54518C2.38279 3.77952 1.42146 7.89668 2.46096 11.1435M12.2773 23.2512C12.1326 23.2512 11.9891 23.2162 11.8585 23.145C11.4933 22.9455 2.89146 18.2042 0.794957 11.6778C0.793791 11.6778 0.793791 11.6767 0.793791 11.6767C-0.522209 7.56768 0.943124 2.40402 5.67396 0.879182C7.89529 0.160516 10.3161 0.476682 12.2738 1.71218C14.1708 0.512849 16.6908 0.181516 18.8678 0.879182C23.6033 2.40635 25.0733 7.56885 23.7585 11.6767C21.7296 18.1283 13.0648 22.9408 12.6973 23.1427C12.5666 23.215 12.422 23.2512 12.2773 23.2512" fill="white"/>
</g>
<path fill-rule="evenodd" clip-rule="evenodd" d="M19.1791 9.39573C18.7276 9.39573 18.345 9.04923 18.3076 8.5919C18.2306 7.6329 17.589 6.82323 16.6755 6.52807C16.2146 6.37873 15.9626 5.88523 16.1108 5.42673C16.2613 4.96707 16.7501 4.7174 17.2121 4.86207C18.8023 5.37657 19.9165 6.78473 20.053 8.44957C20.0915 8.9314 19.7333 9.35373 19.2515 9.39223C19.227 9.39457 19.2036 9.39573 19.1791 9.39573" fill="white"/>
</svg>
