<svg width="23" height="22" viewBox="0 0 23 22" fill="none" xmlns="http://www.w3.org/2000/svg">
<mask id="mask0_1400_8399" style="mask-type:luminance" maskUnits="userSpaceOnUse" x="0" y="0" width="23" height="22">
<path fill-rule="evenodd" clip-rule="evenodd" d="M0.599609 0.000488281H22.0926V21.4943H0.599609V0.000488281Z" fill="white"/>
</mask>
<g mask="url(#mask0_1400_8399)">
<path fill-rule="evenodd" clip-rule="evenodd" d="M5.70805 18.6755C6.28805 18.6755 6.83505 18.8955 7.41405 19.1285C10.961 20.7685 15.156 20.0225 17.889 17.2905C21.495 13.6825 21.495 7.81349 17.889 4.20749C16.143 2.46149 13.821 1.50049 11.349 1.50049C8.87605 1.50049 6.55305 2.46249 4.80805 4.20849C2.07405 6.94049 1.33005 11.1355 2.95505 14.6485C3.18905 15.2275 3.41505 15.7915 3.41505 16.3775C3.41505 16.9625 3.21405 17.5515 3.03705 18.0715C2.89105 18.4995 2.67005 19.1455 2.81205 19.2875C2.95105 19.4315 3.60105 19.2045 4.03005 19.0575C4.54505 18.8815 5.12905 18.6795 5.70805 18.6755ZM11.324 21.4945C9.79605 21.4945 8.25805 21.1715 6.81905 20.5055C6.39505 20.3355 5.99805 20.1755 5.71305 20.1755C5.38505 20.1775 4.94405 20.3295 4.51805 20.4765C3.64405 20.7765 2.55605 21.1505 1.75105 20.3485C0.949047 19.5455 1.31905 18.4605 1.61705 17.5875C1.76405 17.1575 1.91505 16.7135 1.91505 16.3775C1.91505 16.1015 1.78205 15.7495 1.57805 15.2425C-0.294954 11.1975 0.571047 6.32249 3.74805 3.14749C5.77605 1.11849 8.47505 0.000488281 11.348 0.000488281C14.221 0.000488281 16.921 1.11749 18.949 3.14649C23.141 7.33849 23.141 14.1585 18.949 18.3505C16.894 20.4065 14.127 21.4945 11.324 21.4945Z" fill="#9E9E9E"/>
</g>
<path fill-rule="evenodd" clip-rule="evenodd" d="M15.296 12.1631C14.744 12.1631 14.292 11.7161 14.292 11.1631C14.292 10.6101 14.735 10.1631 15.287 10.1631H15.296C15.848 10.1631 16.296 10.6101 16.296 11.1631C16.296 11.7161 15.848 12.1631 15.296 12.1631Z" fill="#9E9E9E"/>
<path fill-rule="evenodd" clip-rule="evenodd" d="M11.2872 12.1631C10.7352 12.1631 10.2832 11.7161 10.2832 11.1631C10.2832 10.6101 10.7252 10.1631 11.2782 10.1631H11.2872C11.8392 10.1631 12.2872 10.6101 12.2872 11.1631C12.2872 11.7161 11.8392 12.1631 11.2872 12.1631Z" fill="#9E9E9E"/>
<path fill-rule="evenodd" clip-rule="evenodd" d="M7.27744 12.1631C6.72544 12.1631 6.27344 11.7161 6.27344 11.1631C6.27344 10.6101 6.71644 10.1631 7.26844 10.1631H7.27744C7.82944 10.1631 8.27744 10.6101 8.27744 11.1631C8.27744 11.7161 7.82944 12.1631 7.27744 12.1631Z" fill="#9E9E9E"/>
</svg>
