<svg width="21" height="20" viewBox="0 0 21 20" fill="none" xmlns="http://www.w3.org/2000/svg">
<path fill-rule="evenodd" clip-rule="evenodd" d="M0.399902 8.66993C0.399902 3.88166 4.24024 0 8.97754 0C11.2525 0 13.4342 0.913436 15.0428 2.53936C16.6515 4.16529 17.5552 6.37052 17.5552 8.66993C17.5552 13.4582 13.7148 17.3399 8.97754 17.3399C4.24024 17.3399 0.399902 13.4582 0.399902 8.66993ZM17.4133 15.6543L19.9679 17.7164H20.0123C20.5291 18.2388 20.5291 19.0858 20.0123 19.6082C19.4954 20.1306 18.6575 20.1306 18.1406 19.6082L16.0206 17.1785C15.8202 16.9766 15.7075 16.7024 15.7075 16.4164C15.7075 16.1304 15.8202 15.8562 16.0206 15.6543C16.4071 15.2704 17.0267 15.2704 17.4133 15.6543Z" fill="#0096C7"/>
</svg>
