<svg width="29" height="28" viewBox="0 0 29 28" fill="none" xmlns="http://www.w3.org/2000/svg">
<path d="M3.99967 23.0103V24.5001C3.99967 24.8095 4.12259 25.1063 4.34138 25.325C4.56018 25.5438 4.85692 25.6667 5.16634 25.6667H6.33301C6.64243 25.6667 6.93917 25.5438 7.15797 25.325C7.37676 25.1063 7.49967 24.8095 7.49967 24.5001V23.3334H21.4997V24.5001C21.4997 24.8095 21.6226 25.1063 21.8414 25.325C22.0602 25.5438 22.3569 25.6667 22.6663 25.6667H23.833C24.1424 25.6667 24.4392 25.5438 24.658 25.325C24.8768 25.1063 24.9997 24.8095 24.9997 24.5001V23.0103C25.3536 22.8073 25.6478 22.5146 25.8527 22.1617C26.0575 21.8088 26.1657 21.4081 26.1663 21.0001V17.5001C26.1663 16.5306 25.5748 15.7011 24.7337 15.3476L23.1377 10.5596C22.9062 9.86248 22.4608 9.25607 21.865 8.82651C21.2691 8.39695 20.5531 8.1661 19.8185 8.16675H9.18084C8.4463 8.1661 7.73022 8.39695 7.13437 8.82651C6.53852 9.25607 6.0932 9.86248 5.86168 10.5596L4.26567 15.3476C3.84136 15.5253 3.479 15.8244 3.22411 16.2074C2.96922 16.5903 2.83316 17.0401 2.83301 17.5001V21.0001C2.83301 21.8611 3.30434 22.6054 3.99967 23.0103ZM6.91634 21.0001C6.68645 21 6.45883 20.9546 6.24647 20.8666C6.03411 20.7786 5.84117 20.6495 5.67866 20.4869C5.35047 20.1585 5.16619 19.7132 5.16634 19.2489C5.1665 18.7846 5.35108 18.3394 5.67949 18.0112C6.0079 17.683 6.45322 17.4988 6.91751 17.4989C7.38179 17.4991 7.827 17.6837 8.15519 18.0121C8.48338 18.3405 8.66766 18.7858 8.66751 19.2501C8.66735 19.7144 8.48277 20.1596 8.15436 20.4878C7.82595 20.816 7.38063 21.0002 6.91634 21.0001ZM22.083 21.0001C21.6187 20.9999 21.1735 20.8153 20.8453 20.4869C20.5171 20.1585 20.3329 19.7132 20.333 19.2489C20.3332 18.7846 20.5177 18.3394 20.8462 18.0112C21.1746 17.683 21.6199 17.4988 22.0842 17.4989C22.5485 17.4991 22.9937 17.6837 23.3219 18.0121C23.65 18.3405 23.8343 18.7858 23.8342 19.2501C23.834 19.7144 23.6494 20.1596 23.321 20.4878C22.9926 20.816 22.5473 21.0002 22.083 21.0001ZM9.18084 10.5001H19.8173C20.0623 10.5 20.3011 10.5771 20.4998 10.7203C20.6985 10.8635 20.8471 11.0657 20.9245 11.2981L22.2148 15.1667H6.78451L8.07368 11.2981C8.23351 10.8209 8.67917 10.5001 9.18084 10.5001Z" fill="url(#paint0_linear_1336_24117)"/>
<path d="M26.1663 8.61935V6.15885L14.8683 2.39285C14.6187 2.30928 14.348 2.31298 14.1007 2.40335L2.83301 6.50069V8.98335L14.5172 4.73435L26.1663 8.61935Z" fill="url(#paint1_linear_1336_24117)"/>
<defs>
<linearGradient id="paint0_linear_1336_24117" x1="26.1663" y1="25.6668" x2="-0.018893" y2="15.5439" gradientUnits="userSpaceOnUse">
<stop stop-color="#0096C7"/>
<stop offset="1" stop-color="#00B4D8"/>
</linearGradient>
<linearGradient id="paint1_linear_1336_24117" x1="26.1663" y1="8.98335" x2="11.3743" y2="-6.06376" gradientUnits="userSpaceOnUse">
<stop stop-color="#0096C7"/>
<stop offset="1" stop-color="#00B4D8"/>
</linearGradient>
</defs>
</svg>
